<svg xmlns="http://www.w3.org/2000/svg" xmlns:xlink="http://www.w3.org/1999/xlink" version="1.1" x="0px" y="0px" viewBox="-20 -20 130 130" xml:space="preserve" data-icon="true" fill="#F07238"><switch><g><path d="M78.3,0H11.7C5.3,0,0,5.3,0,11.7v66.6C0,84.7,5.3,90,11.7,90h66.6C84.7,90,90,84.7,90,78.3V11.7C90,5.3,84.7,0,78.3,0z     M77.2,25.8L41.7,70.3c-0.9,1.1-2.1,1.7-3.5,1.8c-0.1,0-0.2,0-0.3,0c-1.3,0-2.5-0.5-3.4-1.4L13.2,49.8c-1.9-1.9-1.9-5,0-6.9    c1.9-1.9,5-1.9,6.9,0l17.4,17.1l32.1-40.2c1.7-2.1,4.8-2.5,6.9-0.8C78.5,20.7,78.9,23.7,77.2,25.8z"></path></g></switch></svg>