<svg xmlns="http://www.w3.org/2000/svg" data-name="Layer 1" viewBox="-20 -20 168 168" x="0px" y="0px" data-icon="true" fill="#F07238"><title>Miscellaneous 214_Expanded</title><path d="M100.00569,26A13,13,0,1,0,87.00493,13,13.01481,13.01481,0,0,0,100.00569,26Zm0-22a9,9,0,1,1-9.00053,9A9.01073,9.01073,0,0,1,100.00569,4Z"></path><path d="M28.00146,26A13,13,0,1,0,15.0007,13,13.01481,13.01481,0,0,0,28.00146,26Zm0-22a9,9,0,1,1-9.00053,9A9.01073,9.01073,0,0,1,28.00146,4Z"></path><path d="M32.009,46H4.05133L7.00951,30.24756c.00781-.04346.01465-.0874.02-.13135a1.593,1.593,0,0,1,1.39364-1.33545l9.89859-1.8233a17.1242,17.1242,0,0,1-3.62125-3.39984l-6.9517,1.28076a5.58926,5.58926,0,0,0-4.68192,4.72852L.04035,45.69385A3.75515,3.75515,0,0,0,3.74858,50H32.97539A7.75032,7.75032,0,0,1,32.009,46Z"></path><path d="M127.95411,45.61572l-3.01385-16.04883a5.57125,5.57125,0,0,0-4.63162-4.71973l-7.00188-1.28973a17.12839,17.12839,0,0,1-3.62131,3.4l9.94883,1.83209a1.57237,1.57237,0,0,1,1.34334,1.32666c.00537.04395.01221.08789.02.13135L123.95729,46H95.99819a7.75032,7.75032,0,0,1-.96643,4h29.22681a3.74124,3.74124,0,0,0,2.83366-1.29834A3.798,3.798,0,0,0,127.95411,45.61572Z"></path><path d="M64.00358,26A13,13,0,1,0,51.00281,13,13.01481,13.01481,0,0,0,64.00358,26Zm0-22A9,9,0,1,1,55.003,13,9.01073,9.01073,0,0,1,64.00358,4Z"></path><path d="M73.68335,26.95746l9.94883,1.83209a1.57237,1.57237,0,0,1,1.34334,1.32666c.00537.04395.01221.08789.02.13135L87.95518,46H70.63709l-.00012.01886a10.75038,10.75038,0,0,1,6.56575,3.10406A10.886,10.886,0,0,1,79.276,48.9043H79.357A10.80992,10.80992,0,0,1,84.10089,50h4.15558a3.74124,3.74124,0,0,0,2.83366-1.29834,3.798,3.798,0,0,0,.86187-3.08594L88.93815,29.56689a5.57125,5.57125,0,0,0-4.63162-4.71973l-7.00188-1.28973A17.12839,17.12839,0,0,1,73.68335,26.95746Z"></path><path d="M39.069,29.56689l-3.02654,16.127A3.75515,3.75515,0,0,0,39.75069,50h9.02073l.03064-4H40.05344l2.95818-15.75244c.00781-.04346.01465-.0874.02-.13135a1.593,1.593,0,0,1,1.39364-1.33545l9.89859-1.8233a17.1242,17.1242,0,0,1-3.62125-3.39984l-6.9517,1.28076A5.58926,5.58926,0,0,0,39.069,29.56689Z"></path><path d="M89.1115,56.44385a6.92125,6.92125,0,0,0-3.35017.894,6.78409,6.78409,0,0,0-1.56027-2.43207,6.87375,6.87375,0,0,0-8.45087-.98224,6.80463,6.80463,0,0,0-1.35976-1.95721A6.86486,6.86486,0,0,0,66.6012,50.628l.09785-12.7359a6.91719,6.91719,0,0,0-13.83431.04l-.294,38.2583-4.9583-4.84326a10.26364,10.26364,0,0,0-14.39489-.01025,3.22873,3.22873,0,0,0-1.20613,2.24658,3.18694,3.18694,0,0,0,.94048,2.50684l8.09569,8.09082A106.17635,106.17635,0,0,1,51.6469,96.65869a58.418,58.418,0,0,1,5.87791,10.2168,11.918,11.918,0,0,1,3.98052-.85028A60.30949,60.30949,0,0,0,54.9342,94.37939,109.20627,109.20627,0,0,0,43.87544,81.35205l-7.49165-7.4873a6.25539,6.25539,0,0,1,8.41749.32764l8.33592,8.14354a2.01912,2.01912,0,0,0,3.39768-1.41551l.3301-42.958A3.00019,3.00019,0,0,1,59.8334,35a2.86361,2.86361,0,0,1,2.86541,2.86133s-.2543,33.10916-.25441,33.12353a2.0036,2.0036,0,0,0,1.90852,1.99577,2.03644,2.03644,0,0,0,2.09172-1.965l.1084-14.08838a3.00062,3.00062,0,0,1,2.96888-2.9624,2.89607,2.89607,0,0,1,2.865,2.86084l-.1084,14.15918a2.00017,2.00017,0,0,0,4.00023.03027l.08545-11.14844a3.00062,3.00062,0,0,1,2.96891-2.9624,2.865,2.865,0,0,1,2.86542,2.86133L82.113,70.90137v.0835a2.00017,2.00017,0,0,0,4.00023.03027l.05774-7.61066a3.00012,3.00012,0,0,1,2.96877-2.96063,2.856,2.856,0,0,1,2.86495,2.86084l-.16212,21.17822A40.87906,40.87906,0,0,1,88.9235,99.65527a40.24192,40.24192,0,0,0-2.3177,6.37518,11.91623,11.91623,0,0,1,3.91.85687,36.94828,36.94828,0,0,1,2.08368-5.65491,44.96372,44.96372,0,0,0,3.24335-16.71924L96.005,63.33545a6.7916,6.7916,0,0,0-1.9967-4.89014A6.88362,6.88362,0,0,0,89.1115,56.44385Z"></path><path d="M86.00487,110H62.00346a8.0094,8.0094,0,0,0-8.00047,8v2a8.0094,8.0094,0,0,0,8.00047,8H86.00487a8.0094,8.0094,0,0,0,8.00047-8v-2A8.0094,8.0094,0,0,0,86.00487,110Zm4.00023,10a4.0047,4.0047,0,0,1-4.00023,4H62.00346a4.0047,4.0047,0,0,1-4.00023-4v-2a4.0047,4.0047,0,0,1,4.00023-4H86.00487a4.0047,4.0047,0,0,1,4.00023,4Z"></path></svg>