<svg xmlns="http://www.w3.org/2000/svg" xmlns:xlink="http://www.w3.org/1999/xlink" version="1.1" x="0px" y="0px" viewBox="-20 -20 140 140" style="enable-background:new 0 0 100 100;" xml:space="preserve" data-icon="true" fill="#F07238"><switch><g><g><path d="M40.1,31.7h5.7l3.2,5c0.5,0.7,1.5,0.7,2,0l3.2-5h5.7c2.7,0,4.8-2.2,4.8-4.8V7.3c0-2.7-2.2-4.8-4.8-4.8H40.1     c-2.7,0-4.8,2.2-4.8,4.8v19.5C35.3,29.5,37.4,31.7,40.1,31.7z M50.3,27.7c-1.2,0-2.1-1-2.1-2.1c0-1.2,1-2.1,2.1-2.1     c1.2,0,2.1,1,2.1,2.1C52.4,26.8,51.5,27.7,50.3,27.7z M50.1,7.3c2.6,0,4.8,1.3,5.9,3.4c1,2,0.8,4.3-0.4,6.1     c-0.8,1.1-1.7,1.7-2.3,2.2c-0.7,0.5-1,0.7-1.1,1.8c0,0.5-0.5,0.9-1,0.9h-1.5c-0.6,0-1-0.5-1-1.1c0.2-2.7,1.3-3.6,2.6-4.6     c0.5-0.4,1-0.7,1.5-1.4c0.5-0.7,0.6-1.6,0.1-2.4c-0.3-0.5-1-1.5-2.7-1.5c-2.2,0-2.9,1.4-3.1,2.5c-0.1,0.5-0.5,0.8-1,0.8h-1.6     c-0.6,0-1.1-0.5-1-1.1C43.9,10.1,46,7.3,50.1,7.3z"></path><path d="M70.3,51.7c-1.4-0.8-3.2-0.3-4,1.1L63,58.5l-6-2.8c-1.4-0.6-3-1-4.5-1h-5c-1.5,0-3.1,0.3-4.5,1L37,58.5l-3.3-5.7     c-0.8-1.4-2.6-1.9-4-1.1c-1.4,0.8-1.9,2.6-1.1,4l4.7,8c0.8,1.3,2.4,1.8,3.8,1.2l5.9-2.7l-0.1,10.9l-4.4,7.5     c-0.3,0.5-0.4,1-0.4,1.6l-0.1,12c0,1.8,1.4,3.3,3.2,3.3c0,0,0,0,0,0c1.8,0,3.2-1.4,3.3-3.2l0.1-11.1l4.6-7.9h1.6l4.6,7.9     l0.1,11.1c0,1.8,1.5,3.2,3.3,3.2c0,0,0,0,0,0c1.8,0,3.2-1.5,3.2-3.3l-0.1-12c0-0.6-0.2-1.1-0.4-1.6l-4.4-7.5L57,62.2l5.9,2.7     c0.4,0.2,0.8,0.3,1.2,0.3c1,0,2-0.5,2.5-1.5l4.7-8C72.2,54.3,71.7,52.5,70.3,51.7z"></path><circle cx="50" cy="46.5" r="6.5"></circle></g></g></switch></svg>