<svg xmlns="http://www.w3.org/2000/svg" xmlns:xlink="http://www.w3.org/1999/xlink" version="1.1" x="0px" y="0px" viewBox="-20 -20 552 552" style="enable-background:new 0 0 512 512;" xml:space="preserve" data-icon="true" fill="#F07238"><path d="M75.018,221.704c0,22.063,17.962,40.011,40.025,40.011s40.011-17.948,40.011-40.011s-17.948-40.011-40.011-40.011  S75.018,199.641,75.018,221.704z M115.043,193.014c15.822,0,28.69,12.868,28.69,28.69s-12.868,28.69-28.69,28.69  c-15.836,0-28.704-12.868-28.704-28.69S99.207,193.014,115.043,193.014z M59.803,334.392h110.466c3.12,0,5.661-2.54,5.661-5.661  v-26.757c0-14.925-12.136-27.061-27.061-27.061H81.217c-14.925,0-27.075,12.136-27.075,27.061v26.757  C54.142,331.852,56.683,334.392,59.803,334.392z M65.464,301.975c0-8.684,7.069-15.739,15.753-15.739h67.652  c8.684,0,15.739,7.055,15.739,15.739v21.096H65.464V301.975z M396.971,181.693c-22.063,0-40.011,17.948-40.011,40.011  s17.948,40.011,40.011,40.011c22.063,0,40.011-17.948,40.011-40.011S419.034,181.693,396.971,181.693z M396.971,250.394  c-15.822,0-28.69-12.868-28.69-28.69s12.868-28.69,28.69-28.69s28.69,12.868,28.69,28.69S412.793,250.394,396.971,250.394z   M336.071,301.975v26.757c0,3.12,2.54,5.661,5.661,5.661h110.466c3.12,0,5.661-2.54,5.661-5.661v-26.757  c0-14.925-12.136-27.061-27.061-27.061h-67.652C348.22,274.914,336.071,287.05,336.071,301.975z M446.536,301.975v21.096h-99.144  v-21.096c0-8.684,7.069-15.739,15.753-15.739h67.652C439.481,286.235,446.536,293.29,446.536,301.975z M303.308,225.763  c-5.249,5.249-13.306-2.709-8.008-8.008l9.549-9.54H196.957c-3.12,0-5.661-2.54-5.661-5.661c0-3.12,2.54-5.661,5.661-5.661h107.892  l-9.549-9.54c-5.298-5.298,2.712-13.303,8.008-8.008c8.516,8.575,18.281,18.149,19.533,19.698  C326.975,204.147,323.409,205.518,303.308,225.763z M318.509,280.934H210.616l9.549,9.54c5.299,5.299-2.771,13.245-8.008,8.008  c-17.153-17.279-24.722-21.695-19.205-27.213l19.205-19.219c5.298-5.298,13.303,2.712,8.008,8.008l-9.554,9.554h107.898  c3.12,0,5.661,2.54,5.661,5.661S321.629,280.934,318.509,280.934z"></path></svg>