<svg xmlns="http://www.w3.org/2000/svg" data-name="Layer 1" viewBox="-20 -20 88 88" x="0px" y="0px" data-icon="true" fill="#F07238"><title>15-break</title><g data-name="Group"><path data-name="Path" d="M36.38,3.66l-8,13.82,1,.56-.87,1.5c-2.28.42-6.41,2.59-9.29,1.75-3.57-1.05-6.44-2.93-7.73-2.66-.87.19-2.18,1.85-2.93,2.9a.56.56,0,0,0-.43.28l-.55,1a.57.57,0,0,0,.22.8l23.8,13.74a.59.59,0,0,0,.81-.21l.55-1a.57.57,0,0,0,0-.44,63.81,63.81,0,0,0,4-8.61l2-3.47,1,.56,8-13.82Z"></path><path data-name="Path" d="M23.44,36l-20.73-12a.61.61,0,0,0-.82.22L.08,27.42a.59.59,0,0,0,.22.82l10,5.75-5,8.71,2.83,1.64,5-8.72,8,4.59a.59.59,0,0,0,.82-.22l1.81-3.12A.61.61,0,0,0,23.44,36Z"></path></g></svg>