<svg xmlns="http://www.w3.org/2000/svg" xmlns:xlink="http://www.w3.org/1999/xlink" version="1.1" x="0px" y="0px" viewBox="-20 -20 140 140" xml:space="preserve" data-icon="true" fill="#F07238"><g><path fill="#F07238" d="M92.512,30.231c-0.043,0.048-2.889,0.269-6.436-0.529c-1.379-0.312-2.799-0.711-4.221-1.379   c-1.242-0.572-2.309-1.374-3.33-2.22c-0.355-0.265-0.754-0.529-1.021-0.841c-1.42-1.423-2.93-2.532-4.572-3.465   c-0.578-0.355-1.154-0.754-1.775-1.063c-3.908-1.82-6.971-1.734-7.104-1.69l-1.066,0.043L50.141,46.422l-4.958-9.93l-8.171-17.404   l-1.064-0.043c-0.134-0.044-3.198-0.13-7.147,1.69c-0.579,0.309-1.156,0.707-1.732,1.063c-1.643,0.933-3.198,2.042-4.574,3.465   c-0.31,0.312-0.666,0.576-1.021,0.841c-1.021,0.846-2.086,1.647-3.374,2.22c-1.376,0.668-2.842,1.067-4.173,1.379   c-3.553,0.798-6.393,0.577-6.438,0.529L5,30.058l13.942,29.658c0,0,1.242,0.134,1.509,0.134c1.067,0.091,3.909,0.091,7.239-0.711   c1.374-0.355,2.796-0.802,4.216-1.466c1.245-0.576,2.309-1.331,3.375-2.129c0.577-0.446,1.153-0.893,1.641-1.379   c1.245-1.239,2.532-2.22,3.909-3.018c0.577-0.355,1.154-0.798,1.73-1.066c1.999-0.933,3.774-1.24,4.841-1.379l0.789,1.782   L31.197,85.067l4.882,2.268L50.188,54.98l14.353,32.354l4.883-2.311L52.162,50.463l0.745-1.713c1.11,0.135,2.71,0.49,4.485,1.331   c0.621,0.269,1.199,0.711,1.775,1.066c1.377,0.798,2.664,1.778,3.906,3.018c0.488,0.486,1.066,0.933,1.645,1.379   c1.021,0.798,2.131,1.553,3.373,2.129c1.422,0.664,2.842,1.11,4.176,1.466c3.33,0.802,6.215,0.802,7.279,0.711   c0.223,0,1.512-0.134,1.512-0.134L95,30.058L92.512,30.231z M37.278,43.599l2.799,5.906c-1.244,0.754-2.443,1.687-3.686,2.926   c-0.579,0.625-1.199,1.067-1.821,1.557l-2.797-5.948c-2.354,1.999-5.151,3.021-7.592,3.551l2.796,5.992   c-3.198,0.755-5.905,0.803-7.236,0.803l-2.975-6.396h0.221l1.11,0.091c0.043,0.043,2.753,0.221,6.083-0.49l-3.063-6.525   c-2.931,0.707-5.55,0.846-6.972,0.846c-0.089-0.048-0.178-0.048-0.267-0.048l-3.33-7.103l0.267,0.044l1.199,0.091   c0.045,0,2.708,0.217,5.949-0.49l-3.152-6.751c1.377-0.355,2.799-0.798,4.176-1.422c1.196-0.572,2.307-1.327,3.373-2.22   l3.196,6.837c-2.329,2.008-5.117,3.04-7.575,3.552l3.124,6.66c2.48-0.616,5.182-1.7,7.603-3.521l-3.144-6.694   c0.263-0.217,0.527-0.438,0.748-0.659c1.598-1.644,3.196-2.844,4.795-3.772l-3.198-6.794c0.577-0.398,1.199-0.711,1.776-0.976   c2.354-1.11,4.308-1.466,5.461-1.552l3.02,6.746c-1.732,0.265-4.262,0.933-7.059,2.575l3.107,6.617   c3.152-1.956,5.905-2.312,6.972-2.359l2.84,6.443C42.341,41.379,39.943,42.042,37.278,43.599z M65.43,53.987   c-0.623-0.489-1.244-0.932-1.822-1.557c-1.244-1.239-2.486-2.172-3.686-2.926l2.789-5.889c1.537,0.906,3.117,2.063,4.689,3.673   c0.279,0.265,0.576,0.494,0.826,0.754L65.43,53.987z M86.119,45.862c-0.133,0-0.182,0-0.268,0.048   c-1.463,0-4.039-0.139-6.971-0.846l-3.063,6.525c3.33,0.711,6.037,0.533,6.082,0.49l1.111-0.091h0.221l-2.975,6.396   c-1.33,0-4.041-0.048-7.236-0.803l2.797-5.992c-2.439-0.529-5.236-1.552-7.588-3.547l3.053-6.504   c-0.65-0.489-1.281-1.015-1.881-1.617c-1.201-1.253-2.432-2.154-3.607-2.888l-3.08,6.561c-2.527-1.505-4.834-2.173-6.521-2.437   l2.84-6.487c1.156,0.092,3.775,0.538,6.75,2.359l3.107-6.617c-2.707-1.6-5.15-2.263-6.881-2.532l2.93-6.789   c1.156,0.13,3.109,0.485,5.371,1.552c0.58,0.265,1.199,0.577,1.779,0.976l-3.199,6.794c1.555,0.929,3.152,2.129,4.75,3.772   c0.268,0.226,0.533,0.442,0.801,0.668l3.197-6.842c1.064,0.893,2.176,1.647,3.33,2.22c1.42,0.624,2.84,1.066,4.217,1.422   L81.992,38.4c-2.457-0.512-5.242-1.548-7.568-3.556l-3.141,6.694c2.418,1.821,5.121,2.905,7.602,3.521l3.123-6.651   c3.275,0.702,5.934,0.485,5.934,0.485l1.24-0.091l0.268-0.044L86.119,45.862z"></path><path fill="#F07238" d="M32.589,47.289c1.576-1.613,3.156-2.767,4.696-3.677l-3.089-6.578c-1.175,0.733-2.409,1.635-3.61,2.888   c-0.598,0.603-1.229,1.128-1.877,1.617l3.053,6.504C32.01,47.787,32.308,47.558,32.589,47.289z"></path></g></svg>